<svg xmlns="http://www.w3.org/2000/svg" version="1.1" xmlns:xlink="http://www.w3.org/1999/xlink" xmlns:svgjs="http://svgjs.dev/svgjs" width="1000" height="1000" viewBox="0 0 1000 1000"><rect width="1000" height="1000" fill="#ffffff"></rect><g transform="matrix(0.7,0,0,0.7,149.57605563665675,383.384333075777)"><svg viewBox="0 0 396 132" data-background-color="#ffffff" preserveAspectRatio="xMidYMid meet" height="333" width="1000" xmlns="http://www.w3.org/2000/svg" xmlns:xlink="http://www.w3.org/1999/xlink"><defs></defs><g id="tight-bounds" transform="matrix(1,0,0,1,0.24008861730862918,0.03726975087860751)"><svg viewBox="0 0 395.52 131.9255443460865" height="131.9255443460865" width="395.52"><g><svg viewBox="0 0 395.52 131.9255443460865" height="131.9255443460865" width="395.52"><g><svg viewBox="0 0 395.52 131.9255443460865" height="131.9255443460865" width="395.52"><g><svg viewBox="0 0 395.52 131.9255443460865" height="131.9255443460865" width="395.52"><g><svg viewBox="0 0 395.52 131.9255443460865" height="131.9255443460865" width="395.52"><path d="M394.594 28.296C392.735 14.602 387.435 10.795 387.435 10.795 371.165-3.31 350.86-0.27 332.619 1.757 300.414 1.839 268.339 4.852 236.208 6.468 168.767 6.714 100.749 2.661 33.643 12.657 27.339 15.725-6.54 13.26 1.121 30.048 3.129 37.032 10.456 44.783 10.232 51.192 11.236 52.314 12.631 49.74 13.226 51.356 15.309 55.711 18.711 53.656 21.501 56.231 17.614 63.105 20.403 68.829 23.062 74.827 18.377 76.388 12.371 75.649 9.675 80.825 9.396 84.577 7.89 83.865 6.235 83.701 5.026 83.591 2.59 84.002 2.999 85.18 4.394 89.206-1.594 91.534 2.162 95.477-0.422 99.75 3.948 103.447 3.353 108.076 3.278 109.007 3.687 109.801 4.338 110.02 7.22 111.198 3.018 113.498 3.464 115.991 33.029 133.026 65.104 121.249 95.394 129.082 103.259 123.605 97.346 131.027 100.489 129.876 102.943 128.534 104.728 134.094 107.499 130.944 107.927 130.041 107.276 127.904 108.8 128.315 109.6 128.534 110.307 128.48 110.418 127.22 110.586 125.33 109.117 126.508 108.726 125.522 112.947 120.537 111.906 132.396 115.866 131.903 115.68 130.451 114.528 128.37 116.889 128.644 119.232 126.562 119.306 124.837 121.389 129.52 121.463 130.534 121.835 131.246 122.43 131.739 128.938 126.645 135.409 133.546 142.233 131.246 146.417 128.726 150.433 132.615 154.672 131.656 156.16 130.89 157.666 129.52 159.098 131.821 176.632 132.314 195.319 130.26 211.943 131.903 256.364 128.836 303.835 133.163 350.674 129.109 361.719 127.548 373.192 125.33 383.958 123.55 383.958 123.55 392.679 118.675 392.679 96.765S394.538 77.593 394.817 60.147C395.096 42.701 396.398 41.989 394.538 28.296Z" opacity="1" fill="#828282" data-fill-palette-color="tertiary"></path><g transform="matrix(1,0,0,1,55.76832,26.230666666666668)"><svg width="283.98335999999995" viewBox="2.6500000953674316 -36.849998474121094 133.29000854492188 37.29999923706055" height="79.46421101275317" data-palette-color="#ffffff"><path d="M14.15 0.3L14.15 0.3Q11.05 0.3 8.4-0.83 5.75-1.95 4.2-4.48 2.65-7 2.65-11.15L2.65-11.15 2.65-25.1Q2.65-29.25 4.2-31.78 5.75-34.3 8.4-35.43 11.05-36.55 14.2-36.55L14.2-36.55Q17.7-36.55 20.38-35.38 23.05-34.2 24.58-32.1 26.1-30 26.1-27.05L26.1-27.05Q26.1-25.1 25.3-24.48 24.5-23.85 22.85-23.85L22.85-23.85Q21.5-23.85 20.58-24.33 19.65-24.8 19.6-25.9L19.6-25.9Q19.6-26.5 19.43-27.33 19.25-28.15 18.75-28.95 18.25-29.75 17.23-30.3 16.2-30.85 14.4-30.85L14.4-30.85Q11.85-30.85 10.48-29.43 9.1-28 9.1-25.1L9.1-25.1 9.1-11.15Q9.1-8.2 10.5-6.8 11.9-5.4 14.5-5.4L14.5-5.4Q16.2-5.4 17.2-5.95 18.2-6.5 18.68-7.33 19.15-8.15 19.33-9.05 19.5-9.95 19.6-10.75L19.6-10.75Q19.7-11.9 20.6-12.35 21.5-12.8 22.8-12.8L22.8-12.8Q24.5-12.8 25.3-12.15 26.1-11.5 26.1-9.6L26.1-9.6Q26.1-6.6 24.58-4.35 23.05-2.1 20.35-0.9 17.65 0.3 14.15 0.3ZM51.2 0L33.4 0Q32.35 0 31.45-0.53 30.55-1.05 30.55-2.05L30.55-2.05 30.55-34.5Q30.55-35.5 31.45-36.02 32.35-36.55 33.4-36.55L33.4-36.55 51.2-36.55Q52.3-36.55 52.77-35.65 53.25-34.75 53.25-33.75L53.25-33.75Q53.25-32.55 52.72-31.7 52.2-30.85 51.2-30.85L51.2-30.85 37.05-30.85 37.05-20.85 44.65-20.85Q45.65-20.85 46.17-20.08 46.7-19.3 46.7-18.25L46.7-18.25Q46.7-17.4 46.22-16.57 45.75-15.75 44.65-15.75L44.65-15.75 37.05-15.75 37.05-5.7 51.2-5.7Q52.2-5.7 52.72-4.85 53.25-4 53.25-2.8L53.25-2.8Q53.25-1.8 52.77-0.9 52.3 0 51.2 0L51.2 0ZM66.8 0.45L66.8 0.45Q63.55 0.45 60.92-0.5 58.3-1.45 56.77-2.88 55.25-4.3 55.25-5.75L55.25-5.75Q55.25-6.45 55.62-7.28 56-8.1 56.65-8.68 57.3-9.25 58.09-9.25L58.09-9.25Q58.9-9.25 59.59-8.68 60.3-8.1 61.2-7.33 62.09-6.55 63.4-5.98 64.7-5.4 66.59-5.4L66.59-5.4Q68.09-5.4 69.37-5.88 70.65-6.35 71.42-7.3 72.2-8.25 72.2-9.75L72.2-9.75Q72.2-11.35 71.34-12.45 70.5-13.55 69.05-14.35 67.59-15.15 65.9-15.9 64.2-16.65 62.47-17.5 60.75-18.35 59.32-19.55 57.9-20.75 57.02-22.5 56.15-24.25 56.15-26.8L56.15-26.8Q56.15-29.6 57.22-31.5 58.3-33.4 60.07-34.58 61.84-35.75 64-36.27 66.15-36.8 68.3-36.8L68.3-36.8Q69.45-36.8 71.02-36.63 72.59-36.45 74.17-36 75.75-35.55 76.77-34.77 77.8-34 77.8-32.8L77.8-32.8Q77.8-32.2 77.52-31.4 77.25-30.6 76.67-29.98 76.09-29.35 75.2-29.35L75.2-29.35Q74.4-29.35 73.62-29.83 72.84-30.3 71.62-30.78 70.4-31.25 68.3-31.25L68.3-31.25Q66.55-31.25 65.25-30.78 63.95-30.3 63.3-29.48 62.65-28.65 62.65-27.4L62.65-27.4Q62.65-26.1 63.52-25.2 64.4-24.3 65.82-23.6 67.25-22.9 68.95-22.2 70.65-21.5 72.37-20.58 74.09-19.65 75.55-18.35 77-17.05 77.84-15.13 78.7-13.2 78.7-10.4L78.7-10.4Q78.7-6.85 77.15-4.42 75.59-2 72.92-0.78 70.25 0.45 66.8 0.45ZM84.69 0L84.69 0Q83.79 0 82.84-0.35 81.89-0.7 81.24-1.3 80.59-1.9 80.59-2.7L80.59-2.7Q80.59-2.85 80.64-3.2L80.64-3.2 90.29-34.65Q90.64-35.75 91.87-36.3 93.09-36.85 94.49-36.85L94.49-36.85Q95.94-36.85 97.14-36.3 98.34-35.75 98.69-34.65L98.69-34.65 108.34-3.2Q108.44-2.85 108.44-2.7L108.44-2.7Q108.44-1.95 107.77-1.33 107.09-0.7 106.14-0.35 105.19 0 104.29 0L104.29 0Q103.49 0 102.92-0.28 102.34-0.55 102.14-1.3L102.14-1.3 100.24-7.95 88.74-7.95 86.89-1.3Q86.69-0.55 86.09-0.28 85.49 0 84.69 0ZM94.49-28.4L90.14-13.05 98.84-13.05 94.49-28.4ZM131.89 0.25L131.89 0.25Q131.24 0.25 130.62-0.15 129.99-0.55 129.64-1.3L129.64-1.3 122.54-15.1 118.34-15.1 118.34-2.05Q118.34-1.05 117.34-0.53 116.34 0 115.09 0L115.09 0Q113.89 0 112.87-0.53 111.84-1.05 111.84-2.05L111.84-2.05 111.84-34.55Q111.84-35.35 112.42-35.95 112.99-36.55 113.94-36.55L113.94-36.55 123.84-36.55Q127.14-36.55 129.82-35.6 132.49-34.65 134.09-32.38 135.69-30.1 135.69-26.1L135.69-26.1Q135.69-23.2 134.84-21.18 133.99-19.15 132.52-17.93 131.04-16.7 129.14-16.1L129.14-16.1 135.74-3.95Q135.84-3.75 135.89-3.53 135.94-3.3 135.94-3.15L135.94-3.15Q135.94-2.35 135.34-1.55 134.74-0.75 133.82-0.25 132.89 0.25 131.89 0.25ZM118.34-30.85L118.34-20.2 123.84-20.2Q126.29-20.2 127.74-21.4 129.19-22.6 129.19-25.5L129.19-25.5Q129.19-28.5 127.74-29.68 126.29-30.85 123.84-30.85L123.84-30.85 118.34-30.85Z" opacity="1" transform="matrix(1,0,0,1,0,0)" fill="#ffffff" class="undefined-text-0" data-fill-palette-color="quaternary" id="text-0"></path></svg></g></svg></g></svg></g></svg></g><g></g></svg></g></svg><rect width="395.52" height="131.9255443460865" fill="none" stroke="none" visibility="hidden"></rect></g></svg></g></svg>